<?xml version="1.0" encoding="UTF-8" standalone="no"?>
<svg
   xmlns:dc="http://purl.org/dc/elements/1.1/"
   xmlns:cc="http://creativecommons.org/ns#"
   xmlns:rdf="http://www.w3.org/1999/02/22-rdf-syntax-ns#"
   xmlns:svg="http://www.w3.org/2000/svg"
   xmlns="http://www.w3.org/2000/svg"
   xmlns:sodipodi="http://sodipodi.sourceforge.net/DTD/sodipodi-0.dtd"
   xmlns:inkscape="http://www.inkscape.org/namespaces/inkscape"
   inkscape:version="1.0 (4035a4f, 2020-05-01)"
   sodipodi:docname="uto_group.svg"
   id="svg1425"
   version="1.1"
   viewBox="0 0 32 32">
  <metadata
     id="metadata1431">
    <rdf:RDF>
      <cc:Work
         rdf:about="">
        <dc:format>image/svg+xml</dc:format>
        <dc:type
           rdf:resource="http://purl.org/dc/dcmitype/StillImage" />
        <dc:title></dc:title>
      </cc:Work>
    </rdf:RDF>
  </metadata>
  <defs
     id="defs1429" />
  <sodipodi:namedview
     inkscape:current-layer="svg1425"
     inkscape:window-maximized="0"
     inkscape:window-y="0"
     inkscape:window-x="0"
     inkscape:cy="16.126482"
     inkscape:cx="8.9802372"
     inkscape:zoom="31.625"
     showgrid="false"
     id="namedview1427"
     inkscape:window-height="1178"
     inkscape:window-width="1920"
     inkscape:pageshadow="2"
     inkscape:pageopacity="0"
     guidetolerance="10"
     gridtolerance="10"
     objecttolerance="10"
     borderopacity="1"
     bordercolor="#666666"
     pagecolor="#ffffff"
     inkscape:document-rotation="0" />
  <path
     sodipodi:nodetypes="cccccccccscccsccscccccccccccccc"
     d="M 13.095456,5.3063318 C 10.181155,5.2942512 7.812346,7.7103487 7.812253,10.695004 v 0.855468 c -0.406974,0.24041 -0.6578587,0.684856 -0.6582031,1.166016 v 1.347656 c -0.00377,0.485342 0.2476711,0.935242 0.6582031,1.177734 0.175659,1.735729 1.154276,3.279576 2.630859,4.150391 v 0.935547 l -4.8007809,1.820312 c -0.5985417,0.154932 -3.0917968,0.921763 -3.0917969,2.69336 v 1.347656 c -1.171e-4,0.372296 0.2946801,0.674091 0.6582032,0.673828 H 8.632565 v -0.240234 c 0,-0.426509 0.149203,-0.791808 0.376954,-1.107422 H 3.8649874 v -0.673828 c 0,-0.525417 1.2645983,-1.145573 2.1328125,-1.347656 h 0.072266 L 11.331784,21.4743 c 0.272128,-0.103357 0.44594,-0.377169 0.427735,-0.673828 v -1.8125 c -10e-4,-0.258849 -0.146791,-0.494199 -0.375,-0.605468 -1.375256,-0.667714 -2.2530286,-2.085831 -2.2558596,-3.644532 1.17e-4,-0.372296 -0.29468,-0.674091 -0.658203,-0.673828 v -1.347656 c 0.363523,2.63e-4 0.65832,-0.301532 0.658203,-0.673828 V 10.695004 C 9.13021,6.924701 13.725981,5.2098222 16.095456,8.0953943 16.458902,7.8289851 16.85401,7.6110849 17.271237,7.4469568 16.281621,6.1053112 14.737245,5.3136196 13.095456,5.3063318 Z"
     style="fill:#808080;stroke-width:0.665627"
     id="path1416" />
  <path
     d="m 9.915884,26.621815 c 0,-0.525417 1.262857,-1.145139 2.131072,-1.347222 h 0.07235 l 5.261905,-2.020834 a 0.6577381,0.67361111 0 0 0 0.42753,-0.673611 v -1.812014 a 0.6577381,0.67361111 0 0 0 -0.37491,-0.60625 3.9464286,4.0416667 0 0 1 -2.256042,-3.644237 0.6577381,0.67361111 0 0 0 -0.657738,-0.673611 v -1.347222 a 0.6577381,0.67361111 0 0 0 0.657738,-0.673611 V 12.47598 a 3.9464295,4.0416678 0 0 1 7.892859,0 v 1.347223 a 0.6577381,0.67361111 0 0 0 0.657738,0.673611 v 1.347222 h 1.315476 V 14.496814 A 1.3154762,1.3472222 0 0 0 24.386124,13.331467 V 12.47598 a 5.2619055,5.3888896 0 0 0 -10.523811,0 v 0.855487 a 1.3154762,1.3472222 0 0 0 -0.657738,1.165347 v 1.347222 a 1.3154762,1.3472222 0 0 0 0.657738,1.178819 5.3079465,5.4360417 0 0 0 2.630952,4.149446 v 0.936319 l -4.801488,1.81875 c -0.598542,0.154931 -3.09137,0.922848 -3.09137,2.694445 v 1.347222 a 0.6577381,0.67361111 0 0 0 0.657739,0.673611 H 18.46648 V 27.295426 H 9.915884 Z"
     id="path1416-1-0"
     style="fill:#808080;stroke-width:0.665627" />
  <path
     sodipodi:nodetypes="scccccccccssssccccccccccccccssccccs"
     style="fill:#808080;fill-opacity:1;stroke-width:0.665627"
     id="path1416-1-0-5"
     d="m 28.332553,26.621816 c 0,-0.525417 -1.262857,-1.145139 -2.131072,-1.347222 h -0.07235 L 20.867226,23.25376 c -0.271968,-0.103406 -0.445668,-0.377085 -0.42753,-0.673611 v -1.812014 c 7.16e-4,-0.259111 0.146489,-0.494833 0.37491,-0.60625 1.375233,-0.667615 2.253067,-2.0856 2.256042,-3.644238 0,-0.372025 0.294479,-0.673611 0.657738,-0.673611 v -1.347222 c -0.363259,0 -0.657738,-0.301586 -0.657738,-0.673611 V 12.47598 c 0,-5.3888881 -7.892859,-5.3888881 -7.892859,0 v 1.347223 c 0,0.372025 -0.294479,0.673611 -0.657738,0.673611 v 1.347222 h -1.315476 v -1.347222 c 4.82e-4,-0.480822 0.251145,-0.924936 0.657738,-1.165347 V 12.47598 c 0.0014,-7.183782 10.525179,-7.183782 10.523811,0 v 0.855487 c 0.406593,0.240411 0.657256,0.684525 0.657738,1.165347 v 1.347222 c 0.0042,0.48563 -0.247053,0.936014 -0.657738,1.178819 -0.175962,1.735402 -1.15458,3.278844 -2.630952,4.149447 v 0.936319 l 4.801488,1.81875 c 0.598542,0.154931 3.09137,0.922848 3.09137,2.694445 v 1.347222 c 0,0.372025 -0.29448,0.673612 -0.657739,0.673611 H 16.809625 l 0.980237,-1.347222 h 10.542691 z" />
</svg>
